<?xml version="1.0" encoding="UTF-8"?>
<svg xmlns="http://www.w3.org/2000/svg" xmlns:xlink="http://www.w3.org/1999/xlink" width="2000" zoomAndPan="magnify" viewBox="0 0 1500 1499.999933" height="2000" preserveAspectRatio="xMidYMid meet" version="1.0" style="background: transparent;"><defs><g/></defs><g fill="#ffffff" fill-opacity="1"><g transform="translate(10.175396, 1062.925376)"><g><path d="M 331.453125 -616.625 C 385.648438 -616.625 431.71875 -607.453125 469.65625 -589.109375 C 507.59375 -570.765625 538.023438 -545.125 560.953125 -512.1875 C 583.890625 -479.25 599.734375 -440.265625 608.484375 -395.234375 C 617.242188 -350.210938 619.539062 -301.4375 615.375 -248.90625 L 156.34375 -248.90625 C 156.34375 -219.71875 160.925781 -195.953125 170.09375 -177.609375 C 179.269531 -159.265625 191.78125 -145.085938 207.625 -135.078125 C 223.46875 -125.078125 241.394531 -118.195312 261.40625 -114.4375 C 281.414062 -110.6875 302.675781 -108.8125 325.1875 -108.8125 C 341.03125 -108.8125 357.289062 -109.4375 373.96875 -110.6875 C 390.644531 -111.9375 406.070312 -114.851562 420.25 -119.4375 C 434.425781 -124.03125 447.140625 -130.910156 458.390625 -140.078125 C 469.648438 -149.253906 477.363281 -161.765625 481.53125 -177.609375 L 601.609375 -177.609375 C 593.273438 -144.253906 580.5625 -116.109375 563.46875 -93.171875 C 546.375 -70.242188 525.941406 -51.691406 502.171875 -37.515625 C 478.410156 -23.347656 451.726562 -12.925781 422.125 -6.25 C 392.519531 0.414062 361.046875 3.75 327.703125 3.75 C 226.804688 3.75 153.21875 -22.515625 106.9375 -75.046875 C 60.65625 -127.578125 37.515625 -204.707031 37.515625 -306.4375 C 37.515625 -351.457031 43.5625 -392.9375 55.65625 -430.875 C 67.75 -468.820312 85.882812 -501.550781 110.0625 -529.0625 C 134.25 -556.582031 164.6875 -578.054688 201.375 -593.484375 C 238.0625 -608.910156 281.421875 -616.625 331.453125 -616.625 Z M 499.046875 -358.96875 C 498.210938 -368.96875 496.128906 -382.515625 492.796875 -399.609375 C 489.460938 -416.703125 482.164062 -433.378906 470.90625 -449.640625 C 459.644531 -465.898438 443.175781 -479.867188 421.5 -491.546875 C 399.820312 -503.222656 370.222656 -509.0625 332.703125 -509.0625 C 298.515625 -509.0625 270.160156 -504.054688 247.640625 -494.046875 C 225.128906 -484.035156 206.992188 -471.523438 193.234375 -456.515625 C 179.484375 -441.515625 169.894531 -425.257812 164.46875 -407.75 C 159.050781 -390.238281 156.34375 -373.976562 156.34375 -358.96875 Z M 499.046875 -358.96875 "/></g></g></g><g fill="#ffffff" fill-opacity="1"><g transform="translate(646.803578, 1062.925376)"><g><path d="M 327.703125 -620.375 C 361.890625 -620.375 396.070312 -617.035156 430.25 -610.359375 C 464.4375 -603.691406 495.5 -589.726562 523.4375 -568.46875 C 551.375 -547.207031 574.097656 -516.144531 591.609375 -475.28125 C 609.117188 -434.425781 617.875 -379.394531 617.875 -310.1875 C 617.875 -240.976562 609.117188 -185.941406 591.609375 -145.078125 C 574.097656 -104.222656 551.375 -72.957031 523.4375 -51.28125 C 495.5 -29.601562 464.4375 -15.425781 430.25 -8.75 C 396.070312 -2.082031 361.890625 1.25 327.703125 1.25 C 294.347656 1.25 260.367188 -2.082031 225.765625 -8.75 C 191.160156 -15.425781 159.890625 -29.601562 131.953125 -51.28125 C 104.015625 -72.957031 81.289062 -104.222656 63.78125 -145.078125 C 46.269531 -185.941406 37.515625 -240.976562 37.515625 -310.1875 C 37.515625 -379.394531 46.269531 -434.425781 63.78125 -475.28125 C 81.289062 -516.144531 104.015625 -547.207031 131.953125 -568.46875 C 159.890625 -589.726562 191.160156 -603.691406 225.765625 -610.359375 C 260.367188 -617.035156 294.347656 -620.375 327.703125 -620.375 Z M 327.703125 -116.3125 C 354.378906 -116.3125 378.347656 -117.976562 399.609375 -121.3125 C 420.878906 -124.65625 438.804688 -132.785156 453.390625 -145.703125 C 467.984375 -158.628906 479.238281 -178.429688 487.15625 -205.109375 C 495.082031 -231.796875 499.046875 -268.070312 499.046875 -313.9375 C 499.046875 -354.789062 495.707031 -387.515625 489.03125 -412.109375 C 482.363281 -436.710938 472.148438 -455.6875 458.390625 -469.03125 C 444.640625 -482.375 426.921875 -491.335938 405.234375 -495.921875 C 383.554688 -500.503906 357.710938 -502.796875 327.703125 -502.796875 C 297.679688 -502.796875 271.617188 -500.503906 249.515625 -495.921875 C 227.421875 -491.335938 209.492188 -482.375 195.734375 -469.03125 C 181.984375 -455.6875 171.769531 -436.710938 165.09375 -412.109375 C 158.425781 -387.515625 155.09375 -354.789062 155.09375 -313.9375 C 155.09375 -268.070312 159.050781 -231.796875 166.96875 -205.109375 C 174.894531 -178.429688 186.363281 -158.628906 201.375 -145.703125 C 216.382812 -132.785156 234.519531 -124.65625 255.78125 -121.3125 C 277.039062 -117.976562 301.015625 -116.3125 327.703125 -116.3125 Z M 327.703125 -116.3125 "/></g></g></g><g fill="#ffffff" fill-opacity="1"><g transform="translate(1283.431761, 1062.925376)"><g><path d="M 43.78125 -117.578125 L 162.59375 -117.578125 L 162.59375 0 L 43.78125 0 Z M 43.78125 -117.578125 "/></g></g></g></svg>